# xmcd CD database file
#
# Track frame offsets:
#	150
#	16004
#	30600
#	47622
#	60895
#	86079
#	99210
#	112368
#	145152
#	163815
#	182330
#	206722
#
# Disc length: 3149 seconds
#
# Revision: 0
# Processed by: cddbd v1.5.2PL0 Copyright (c) Steve Scherf et al.
# Submitted via: CDex 1.70beta2
#
DISCID=950c4b0c
DTITLE=Oscar Peterson - Date with oscar cd2
DYEAR=1900
DGENRE=Jazz
TTITLE0=Laura
TTITLE1=Easter Parade
TTITLE2=Long Ago And Far Away
TTITLE3=Without a Song
TTITLE4=I Want to Be Happy
TTITLE5=the Lady is a tramp
TTITLE6=Blue Moon
TTITLE7=Lover
TTITLE8=I only have eyes for you
TTITLE9=You must have been a beautiful baby
TTITLE10=I can't give you anything but love
TTITLE11=Jam session for a dancer
EXTD=
EXTT0=
EXTT1=
EXTT2=
EXTT3=
EXTT4=
EXTT5=
EXTT6=
EXTT7=
EXTT8=
EXTT9=
EXTT10=
EXTT11=
PLAYORDER=
